<?xml version="1.0" encoding="iso-8859-1"?>
<!-- Uploaded to: SVG Repo, www.svgrepo.com, Generator: SVG Repo Mixer Tools -->
<svg height="800px" width="800px" version="1.1" id="Layer_1" xmlns="http://www.w3.org/2000/svg" xmlns:xlink="http://www.w3.org/1999/xlink" 
	 viewBox="0 0 512 512" xml:space="preserve">
<path style="fill:#A90028;" d="M44.139,194.211h423.723c11.376,0,20.598,9.222,20.598,20.598v247.17
	c0,11.376-9.222,20.598-20.598,20.598H44.139c-11.376,0-20.598-9.222-20.598-20.598v-247.17
	C23.541,203.433,32.762,194.211,44.139,194.211z"/>
<g>
	<path style="fill:#D8143A;" d="M44.139,194.211H256v288.366H44.139c-11.376,0-20.598-9.222-20.598-20.598v-247.17
		C23.541,203.433,32.762,194.211,44.139,194.211z"/>
	<path style="fill:#D8143A;" d="M20.598,111.808h470.804c11.376,0,20.598,9.222,20.598,20.598v82.389
		c0,11.376-9.222,20.598-20.598,20.598H20.598C9.222,235.393,0,226.171,0,214.795v-82.389C0,121.03,9.222,111.808,20.598,111.808z"
		/>
</g>
<path style="fill:#A90028;" d="M20.598,111.808H256v123.585H20.598C9.222,235.393,0,226.171,0,214.795v-82.389
	C0,121.03,9.222,111.808,20.598,111.808z"/>
<path style="fill:#D6E5F6;" d="M355.326,153.004l0.551,0.004c16.543,0,32.089-6.409,43.773-18.044
	c11.727-11.675,18.187-27.207,18.187-43.735c0-16.529-6.458-32.063-18.184-43.736c-11.701-11.653-27.254-18.071-43.79-18.071
	c-16.537,0-32.089,6.418-43.79,18.071l-56.075,55.844l-56.07-55.847c-11.704-11.65-27.257-18.067-43.79-18.067
	s-32.085,6.417-43.791,18.069C100.618,59.168,94.16,74.7,94.16,91.231c0,16.528,6.46,32.06,18.183,43.731
	c11.683,11.639,27.229,18.048,43.776,18.048l79.28-0.003v55.337l-103.502,124.06c-7.289,8.735-6.115,21.724,2.62,29.012
	c3.853,3.215,8.532,4.781,13.185,4.781c5.898,0,11.755-2.52,15.826-7.403l71.87-86.145v189.331c0,11.376,9.222,20.598,20.598,20.598
	c11.376,0,20.598-9.222,20.598-20.598V272.648l71.871,86.145c4.074,4.883,9.928,7.403,15.826,7.403
	c4.654,0,9.332-1.568,13.185-4.781c8.735-7.288,9.909-20.277,2.62-29.012l-103.502-124.06v-55.339L355.326,153.004L355.326,153.004z
	 M341.145,76.681c3.926-3.911,9.154-6.064,14.719-6.064c5.566,0,10.792,2.153,14.722,6.067c3.905,3.889,6.056,9.053,6.056,14.544
	c0,5.49-2.15,10.653-6.057,14.544c-3.912,3.896-9.135,6.041-14.707,6.041l-0.28-0.003c-0.089,0-0.181-0.001-0.271-0.001h-49.453
	L341.145,76.681z M156.672,111.808c-0.089,0-0.181,0.001-0.271,0.001l-0.28,0.003c-5.572,0-10.793-2.145-14.707-6.043
	c-3.905-3.888-6.056-9.051-6.056-14.541c0-5.49,2.15-10.655,6.054-14.542c3.931-3.914,9.162-6.068,14.728-6.068
	c5.566,0,10.795,2.155,14.723,6.064l35.268,35.126H156.672z"/>
<path style="fill:#8CB7E8;" d="M355.326,153.004l0.551,0.004c16.543,0,32.089-6.409,43.773-18.044
	c11.727-11.675,18.187-27.207,18.187-43.735c0-16.529-6.458-32.063-18.184-43.736c-11.701-11.653-27.254-18.071-43.79-18.071
	c-16.537,0-32.089,6.418-43.79,18.071l-56.075,55.844v379.242c11.376,0,20.598-9.222,20.598-20.598V272.648l71.87,86.145
	c4.074,4.883,9.928,7.403,15.826,7.403c4.654,0,9.332-1.568,13.185-4.781c8.735-7.288,9.909-20.277,2.62-29.012l-103.502-124.06
	v-55.339L355.326,153.004L355.326,153.004z M341.145,76.681c3.926-3.911,9.154-6.064,14.719-6.064
	c5.566,0,10.792,2.153,14.722,6.067c3.905,3.889,6.056,9.053,6.056,14.544c0,5.49-2.15,10.653-6.057,14.544
	c-3.912,3.896-9.135,6.041-14.707,6.041l-0.28-0.003c-0.089,0-0.181-0.001-0.271-0.001h-49.453L341.145,76.681z"/>
</svg>